STARTFONT 2.1
FONT -artwiz-mintsmild-medium-r-normal--8-80-75-75-p-90-ISO8859-1
SIZE 8 75 75
FONTBOUNDINGBOX 8 8 0 -1
STARTPROPERTIES 26
FONTNAME_REGISTRY ""
FOUNDRY "artwiz"
FAMILY_NAME "mintsmild"
WEIGHT_NAME "medium"
SLANT "r"
SETWIDTH_NAME "normal"
ADD_STYLE_NAME ""
PIXEL_SIZE 8
POINT_SIZE 80
RESOLUTION_X 75
RESOLUTION_Y 75
SPACING "p"
AVERAGE_WIDTH 90
CHARSET_REGISTRY "ISO8859"
CHARSET_ENCODING "1"
COPYRIGHT "artwiz, fixed by aleczapka"
FACE_NAME "mintsmild"
WEIGHT 10
RESOLUTION 99
X_HEIGHT 6
QUAD_WIDTH 7
_XMBDFED_INFO "Edited with xmbdfed 4.5."
DEFAULT_CHAR 52
FONT_ASCENT 8
FONT_DESCENT 2
_ORIGINAL_FONT_NAME "mintsmild"
ENDPROPERTIES
CHARS 95
STARTCHAR char32
ENCODING 32
SWIDTH 600 0
DWIDTH 5 0
BBX 0 0 0 0
BITMAP
ENDCHAR
STARTCHAR char33
ENCODING 33
SWIDTH 360 0
DWIDTH 3 0
BBX 1 6 1 -1
BITMAP
80
80
80
80
00
80
ENDCHAR
STARTCHAR char34
ENCODING 34
SWIDTH 600 0
DWIDTH 5 0
BBX 3 3 1 3
BITMAP
A0
A0
A0
ENDCHAR
STARTCHAR char35
ENCODING 35
SWIDTH 840 0
DWIDTH 7 0
BBX 5 5 1 0
BITMAP
50
D8
50
D8
50
ENDCHAR
STARTCHAR char36
ENCODING 36
SWIDTH 840 0
DWIDTH 7 0
BBX 5 7 1 -1
BITMAP
20
70
A0
70
28
F0
20
ENDCHAR
STARTCHAR char37
ENCODING 37
SWIDTH 960 0
DWIDTH 8 0
BBX 6 6 1 0
BITMAP
84
88
10
20
44
84
ENDCHAR
STARTCHAR char38
ENCODING 38
SWIDTH 720 0
DWIDTH 6 0
BBX 4 7 1 -1
BITMAP
20
70
A0
F0
A0
70
20
ENDCHAR
STARTCHAR char39
ENCODING 39
SWIDTH 360 0
DWIDTH 3 0
BBX 1 3 1 3
BITMAP
80
80
80
ENDCHAR
STARTCHAR char40
ENCODING 40
SWIDTH 480 0
DWIDTH 4 0
BBX 2 8 1 -1
BITMAP
40
80
80
80
80
80
80
40
ENDCHAR
STARTCHAR char41
ENCODING 41
SWIDTH 480 0
DWIDTH 4 0
BBX 2 8 1 -1
BITMAP
80
40
40
40
40
40
40
80
ENDCHAR
STARTCHAR char42
ENCODING 42
SWIDTH 840 0
DWIDTH 7 0
BBX 5 5 1 0
BITMAP
20
A8
70
A8
20
ENDCHAR
STARTCHAR char43
ENCODING 43
SWIDTH 840 0
DWIDTH 7 0
BBX 5 5 1 0
BITMAP
20
20
F8
20
20
ENDCHAR
STARTCHAR char44
ENCODING 44
SWIDTH 360 0
DWIDTH 3 0
BBX 1 3 1 -1
BITMAP
80
80
80
ENDCHAR
STARTCHAR char45
ENCODING 45
SWIDTH 720 0
DWIDTH 6 0
BBX 4 1 1 2
BITMAP
F0
ENDCHAR
STARTCHAR char46
ENCODING 46
SWIDTH 360 0
DWIDTH 3 0
BBX 1 2 1 0
BITMAP
80
80
ENDCHAR
STARTCHAR char47
ENCODING 47
SWIDTH 1080 0
DWIDTH 9 0
BBX 7 7 1 -1
BITMAP
02
04
08
10
20
40
80
ENDCHAR
STARTCHAR char48
ENCODING 48
SWIDTH 840 0
DWIDTH 7 0
BBX 5 5 1 0
BITMAP
70
88
88
88
70
ENDCHAR
STARTCHAR char49
ENCODING 49
SWIDTH 360 0
DWIDTH 3 0
BBX 1 5 1 0
BITMAP
80
80
80
80
80
ENDCHAR
STARTCHAR char50
ENCODING 50
SWIDTH 840 0
DWIDTH 7 0
BBX 5 5 1 0
BITMAP
70
08
70
80
F8
ENDCHAR
STARTCHAR char51
ENCODING 51
SWIDTH 840 0
DWIDTH 7 0
BBX 5 5 1 0
BITMAP
F0
08
78
08
F0
ENDCHAR
STARTCHAR char52
ENCODING 52
SWIDTH 840 0
DWIDTH 7 0
BBX 5 5 1 0
BITMAP
88
88
78
08
08
ENDCHAR
STARTCHAR char53
ENCODING 53
SWIDTH 840 0
DWIDTH 7 0
BBX 5 5 1 0
BITMAP
F0
80
F0
08
F0
ENDCHAR
STARTCHAR char54
ENCODING 54
SWIDTH 840 0
DWIDTH 7 0
BBX 5 5 1 0
BITMAP
60
80
F0
88
70
ENDCHAR
STARTCHAR char55
ENCODING 55
SWIDTH 720 0
DWIDTH 6 0
BBX 5 5 1 0
BITMAP
F8
08
10
20
20
ENDCHAR
STARTCHAR char56
ENCODING 56
SWIDTH 840 0
DWIDTH 7 0
BBX 5 5 1 0
BITMAP
70
88
70
88
70
ENDCHAR
STARTCHAR char57
ENCODING 57
SWIDTH 840 0
DWIDTH 7 0
BBX 5 5 1 0
BITMAP
70
88
78
08
10
ENDCHAR
STARTCHAR char58
ENCODING 58
SWIDTH 360 0
DWIDTH 3 0
BBX 1 5 1 0
BITMAP
80
80
00
80
80
ENDCHAR
STARTCHAR char59
ENCODING 59
SWIDTH 360 0
DWIDTH 3 0
BBX 1 6 1 -1
BITMAP
80
80
00
80
80
80
ENDCHAR
STARTCHAR char60
ENCODING 60
SWIDTH 720 0
DWIDTH 6 0
BBX 4 7 1 -1
BITMAP
10
20
40
80
40
20
10
ENDCHAR
STARTCHAR char61
ENCODING 61
SWIDTH 720 0
DWIDTH 6 0
BBX 4 3 1 1
BITMAP
F0
00
F0
ENDCHAR
STARTCHAR char62
ENCODING 62
SWIDTH 720 0
DWIDTH 6 0
BBX 4 7 1 -1
BITMAP
80
40
20
10
20
40
80
ENDCHAR
STARTCHAR char63
ENCODING 63
SWIDTH 720 0
DWIDTH 6 0
BBX 4 6 1 -1
BITMAP
E0
10
20
40
00
40
ENDCHAR
STARTCHAR char64
ENCODING 64
SWIDTH 720 0
DWIDTH 6 0
BBX 4 5 1 0
BITMAP
60
90
B0
80
70
ENDCHAR
STARTCHAR char65
ENCODING 65
SWIDTH 840 0
DWIDTH 7 0
BBX 5 5 1 0
BITMAP
70
88
F8
88
88
ENDCHAR
STARTCHAR char66
ENCODING 66
SWIDTH 840 0
DWIDTH 7 0
BBX 5 5 1 0
BITMAP
F0
88
F0
88
F0
ENDCHAR
STARTCHAR char67
ENCODING 67
SWIDTH 840 0
DWIDTH 7 0
BBX 5 5 1 0
BITMAP
78
80
80
80
78
ENDCHAR
STARTCHAR char68
ENCODING 68
SWIDTH 840 0
DWIDTH 7 0
BBX 5 5 1 0
BITMAP
F0
88
88
88
F0
ENDCHAR
STARTCHAR char69
ENCODING 69
SWIDTH 840 0
DWIDTH 7 0
BBX 5 5 1 0
BITMAP
F8
80
F0
80
F8
ENDCHAR
STARTCHAR char70
ENCODING 70
SWIDTH 840 0
DWIDTH 7 0
BBX 5 5 1 0
BITMAP
F8
80
F0
80
80
ENDCHAR
STARTCHAR char71
ENCODING 71
SWIDTH 840 0
DWIDTH 7 0
BBX 5 5 1 0
BITMAP
60
80
B8
88
78
ENDCHAR
STARTCHAR char72
ENCODING 72
SWIDTH 840 0
DWIDTH 7 0
BBX 5 5 1 0
BITMAP
88
88
F8
88
88
ENDCHAR
STARTCHAR char73
ENCODING 73
SWIDTH 360 0
DWIDTH 3 0
BBX 1 5 1 0
BITMAP
80
80
80
80
80
ENDCHAR
STARTCHAR char74
ENCODING 74
SWIDTH 600 0
DWIDTH 5 0
BBX 3 5 1 0
BITMAP
20
20
20
20
C0
ENDCHAR
STARTCHAR char75
ENCODING 75
SWIDTH 840 0
DWIDTH 7 0
BBX 5 5 1 0
BITMAP
88
90
E0
90
88
ENDCHAR
STARTCHAR char76
ENCODING 76
SWIDTH 720 0
DWIDTH 6 0
BBX 4 5 1 0
BITMAP
80
80
80
80
70
ENDCHAR
STARTCHAR char77
ENCODING 77
SWIDTH 840 0
DWIDTH 7 0
BBX 5 5 1 0
BITMAP
88
D8
A8
88
88
ENDCHAR
STARTCHAR char78
ENCODING 78
SWIDTH 840 0
DWIDTH 7 0
BBX 5 5 1 0
BITMAP
88
C8
A8
98
88
ENDCHAR
STARTCHAR char79
ENCODING 79
SWIDTH 840 0
DWIDTH 7 0
BBX 5 5 1 0
BITMAP
70
88
88
88
70
ENDCHAR
STARTCHAR char80
ENCODING 80
SWIDTH 840 0
DWIDTH 7 0
BBX 5 5 1 0
BITMAP
F0
88
F0
80
80
ENDCHAR
STARTCHAR char81
ENCODING 81
SWIDTH 840 0
DWIDTH 7 0
BBX 5 5 1 0
BITMAP
70
88
88
90
68
ENDCHAR
STARTCHAR char82
ENCODING 82
SWIDTH 840 0
DWIDTH 7 0
BBX 5 5 1 0
BITMAP
F0
88
F0
88
88
ENDCHAR
STARTCHAR char83
ENCODING 83
SWIDTH 840 0
DWIDTH 7 0
BBX 5 5 1 0
BITMAP
70
80
70
08
F0
ENDCHAR
STARTCHAR char84
ENCODING 84
SWIDTH 840 0
DWIDTH 7 0
BBX 5 5 1 0
BITMAP
F8
20
20
20
20
ENDCHAR
STARTCHAR char85
ENCODING 85
SWIDTH 720 0
DWIDTH 6 0
BBX 5 5 1 0
BITMAP
88
88
88
88
70
ENDCHAR
STARTCHAR char86
ENCODING 86
SWIDTH 840 0
DWIDTH 7 0
BBX 5 5 1 0
BITMAP
88
88
50
50
20
ENDCHAR
STARTCHAR char87
ENCODING 87
SWIDTH 840 0
DWIDTH 7 0
BBX 5 5 1 0
BITMAP
88
88
A8
D8
88
ENDCHAR
STARTCHAR char88
ENCODING 88
SWIDTH 840 0
DWIDTH 7 0
BBX 5 5 1 0
BITMAP
88
50
20
50
88
ENDCHAR
STARTCHAR char89
ENCODING 89
SWIDTH 840 0
DWIDTH 7 0
BBX 5 5 1 0
BITMAP
88
50
20
20
20
ENDCHAR
STARTCHAR char90
ENCODING 90
SWIDTH 840 0
DWIDTH 7 0
BBX 5 5 1 0
BITMAP
F8
10
20
40
F8
ENDCHAR
STARTCHAR char91
ENCODING 91
SWIDTH 600 0
DWIDTH 5 0
BBX 3 7 1 -1
BITMAP
E0
80
80
80
80
80
E0
ENDCHAR
STARTCHAR char92
ENCODING 92
SWIDTH 1080 0
DWIDTH 9 0
BBX 7 7 1 -1
BITMAP
80
40
20
10
08
04
02
ENDCHAR
STARTCHAR char93
ENCODING 93
SWIDTH 600 0
DWIDTH 5 0
BBX 3 7 1 -1
BITMAP
E0
20
20
20
20
20
E0
ENDCHAR
STARTCHAR char94
ENCODING 94
SWIDTH 840 0
DWIDTH 7 0
BBX 5 3 1 3
BITMAP
20
50
88
ENDCHAR
STARTCHAR char95
ENCODING 95
SWIDTH 840 0
DWIDTH 7 0
BBX 5 1 1 -1
BITMAP
F8
ENDCHAR
STARTCHAR char96
ENCODING 96
SWIDTH 360 0
DWIDTH 3 0
BBX 1 3 1 3
BITMAP
80
80
80
ENDCHAR
STARTCHAR char97
ENCODING 97
SWIDTH 840 0
DWIDTH 7 0
BBX 5 5 1 0
BITMAP
70
88
F8
88
88
ENDCHAR
STARTCHAR char98
ENCODING 98
SWIDTH 840 0
DWIDTH 7 0
BBX 5 5 1 0
BITMAP
F0
88
F0
88
F0
ENDCHAR
STARTCHAR char99
ENCODING 99
SWIDTH 840 0
DWIDTH 7 0
BBX 5 5 1 0
BITMAP
78
80
80
80
78
ENDCHAR
STARTCHAR char100
ENCODING 100
SWIDTH 840 0
DWIDTH 7 0
BBX 5 5 1 0
BITMAP
F0
88
88
88
F0
ENDCHAR
STARTCHAR char101
ENCODING 101
SWIDTH 840 0
DWIDTH 7 0
BBX 5 5 1 0
BITMAP
F8
80
F0
80
F8
ENDCHAR
STARTCHAR char102
ENCODING 102
SWIDTH 840 0
DWIDTH 7 0
BBX 5 5 1 0
BITMAP
F8
80
F0
80
80
ENDCHAR
STARTCHAR char103
ENCODING 103
SWIDTH 840 0
DWIDTH 7 0
BBX 5 5 1 0
BITMAP
60
80
B8
88
78
ENDCHAR
STARTCHAR char104
ENCODING 104
SWIDTH 840 0
DWIDTH 7 0
BBX 5 5 1 0
BITMAP
88
88
F8
88
88
ENDCHAR
STARTCHAR char105
ENCODING 105
SWIDTH 360 0
DWIDTH 3 0
BBX 1 5 1 0
BITMAP
80
80
80
80
80
ENDCHAR
STARTCHAR char106
ENCODING 106
SWIDTH 600 0
DWIDTH 5 0
BBX 3 5 1 0
BITMAP
20
20
20
20
C0
ENDCHAR
STARTCHAR char107
ENCODING 107
SWIDTH 840 0
DWIDTH 7 0
BBX 5 5 1 0
BITMAP
88
90
E0
90
88
ENDCHAR
STARTCHAR char108
ENCODING 108
SWIDTH 720 0
DWIDTH 6 0
BBX 4 5 1 0
BITMAP
80
80
80
80
70
ENDCHAR
STARTCHAR char109
ENCODING 109
SWIDTH 840 0
DWIDTH 7 0
BBX 5 5 1 0
BITMAP
88
D8
A8
88
88
ENDCHAR
STARTCHAR char110
ENCODING 110
SWIDTH 840 0
DWIDTH 7 0
BBX 5 5 1 0
BITMAP
88
C8
A8
98
88
ENDCHAR
STARTCHAR char111
ENCODING 111
SWIDTH 840 0
DWIDTH 7 0
BBX 5 5 1 0
BITMAP
70
88
88
88
70
ENDCHAR
STARTCHAR char112
ENCODING 112
SWIDTH 840 0
DWIDTH 7 0
BBX 5 5 1 0
BITMAP
F0
88
F0
80
80
ENDCHAR
STARTCHAR char113
ENCODING 113
SWIDTH 840 0
DWIDTH 7 0
BBX 5 5 1 0
BITMAP
70
88
88
90
68
ENDCHAR
STARTCHAR char114
ENCODING 114
SWIDTH 840 0
DWIDTH 7 0
BBX 5 5 1 0
BITMAP
F0
88
F0
88
88
ENDCHAR
STARTCHAR char115
ENCODING 115
SWIDTH 840 0
DWIDTH 7 0
BBX 5 5 1 0
BITMAP
70
80
70
08
F0
ENDCHAR
STARTCHAR char116
ENCODING 116
SWIDTH 840 0
DWIDTH 7 0
BBX 5 5 1 0
BITMAP
F8
20
20
20
20
ENDCHAR
STARTCHAR char117
ENCODING 117
SWIDTH 840 0
DWIDTH 7 0
BBX 5 5 1 0
BITMAP
88
88
88
88
70
ENDCHAR
STARTCHAR char118
ENCODING 118
SWIDTH 840 0
DWIDTH 7 0
BBX 5 5 1 0
BITMAP
88
88
50
50
20
ENDCHAR
STARTCHAR char119
ENCODING 119
SWIDTH 840 0
DWIDTH 7 0
BBX 5 5 1 0
BITMAP
88
88
A8
D8
88
ENDCHAR
STARTCHAR char120
ENCODING 120
SWIDTH 840 0
DWIDTH 7 0
BBX 5 5 1 0
BITMAP
88
50
20
50
88
ENDCHAR
STARTCHAR char121
ENCODING 121
SWIDTH 840 0
DWIDTH 7 0
BBX 5 5 1 0
BITMAP
88
50
20
20
20
ENDCHAR
STARTCHAR char122
ENCODING 122
SWIDTH 840 0
DWIDTH 7 0
BBX 5 5 1 0
BITMAP
F8
10
20
40
F8
ENDCHAR
STARTCHAR char123
ENCODING 123
SWIDTH 840 0
DWIDTH 7 0
BBX 5 7 1 -1
BITMAP
38
20
20
E0
20
20
38
ENDCHAR
STARTCHAR char124
ENCODING 124
SWIDTH 360 0
DWIDTH 3 0
BBX 1 7 1 -1
BITMAP
80
80
80
80
80
80
80
ENDCHAR
STARTCHAR char125
ENCODING 125
SWIDTH 840 0
DWIDTH 7 0
BBX 5 7 1 -1
BITMAP
E0
20
20
38
20
20
E0
ENDCHAR
STARTCHAR char126
ENCODING 126
SWIDTH 840 0
DWIDTH 7 0
BBX 5 3 1 2
BITMAP
40
A8
10
ENDCHAR
ENDFONT
